<?xml version="1.0" encoding="UTF-8"?>
<svg xmlns="http://www.w3.org/2000/svg" xmlns:xlink="http://www.w3.org/1999/xlink" width="267pt" height="188pt" viewBox="0 0 267 188" version="1.1">
<g id="surface1">
<path style=" stroke:none;fill-rule:nonzero;fill:rgb(58.039216%,3.137255%,4.313725%);fill-opacity:1;" d="M 153.109375 77.515625 C 152.980469 75.269531 152.75 71.164062 152.75 71.164062 C 152.683594 69.921875 152.644531 69.300781 152.578125 68.0625 L 152.308594 63.339844 C 152.261719 62.589844 152.539062 60.214844 151.890625 59.78125 C 151.628906 59.644531 151.332031 59.578125 151.035156 59.59375 C 150.941406 59.789062 150.890625 60.003906 150.894531 60.222656 C 150.894531 60.441406 150.820312 60.652344 150.683594 60.820312 C 149.683594 61.871094 149.644531 59.519531 149.652344 59.234375 C 149.660156 59.179688 149.648438 59.121094 149.617188 59.078125 C 149.578125 59.035156 149.535156 59.007812 149.480469 58.996094 C 149.167969 58.867188 148.816406 58.867188 148.5 58.996094 C 148.238281 59.136719 147.96875 60.566406 148.007812 60.566406 C 146.4375 60.566406 147.949219 59.113281 147.320312 58.425781 C 146.992188 58.066406 146.273438 58.003906 145.824219 57.902344 C 145.824219 58.5 145.824219 59.105469 145.824219 59.714844 C 145.675781 59.714844 144.769531 59.421875 144.753906 59.242188 C 144.582031 55.550781 144.328125 51.820312 144.335938 48.128906 C 144.175781 43.902344 144.023438 39.675781 143.871094 35.449219 C 143.796875 33.335938 143.71875 31.222656 143.632812 29.113281 C 143.582031 27.613281 143.042969 25.367188 143.761719 23.964844 C 144.070312 23.441406 144.4375 22.957031 144.851562 22.511719 C 143.402344 21.914062 141.941406 21.34375 140.476562 20.785156 C 140.277344 20.722656 140.09375 20.617188 139.945312 20.46875 C 139.847656 20.324219 139.78125 20.160156 139.75 19.988281 C 138.039062 13.300781 136.238281 6.644531 134.480469 -0.0390625 C 133.484375 6.988281 132.476562 14.011719 131.488281 21.039062 C 131.476562 21.226562 131.425781 21.40625 131.332031 21.570312 C 131.238281 21.710938 131.109375 21.824219 130.957031 21.898438 C 130.589844 22.101562 129.371094 22.648438 127.695312 23.398438 C 128.332031 23.636719 128.851562 24.113281 129.140625 24.730469 C 129.226562 24.941406 129.277344 25.167969 129.289062 25.398438 C 129.394531 27.644531 129.371094 29.890625 129.445312 32.136719 C 129.617188 37.328125 129.785156 42.515625 129.957031 47.699219 L 124.886719 45.625 L 104.691406 37.386719 C 97.960938 34.617188 91.148438 31.875 84.398438 29.066406 C 84.054688 28.890625 83.675781 28.792969 83.289062 28.78125 C 83.003906 28.8125 82.726562 28.886719 82.46875 29.007812 L 81.210938 29.492188 C 80.941406 29.621094 80.648438 29.6875 80.351562 29.679688 C 80.117188 29.648438 79.894531 29.574219 79.691406 29.457031 C 76.097656 27.734375 72.5 25.996094 68.820312 24.460938 C 68.496094 24.316406 68.164062 24.195312 67.824219 24.101562 C 66.238281 23.660156 64.445312 23.921875 62.820312 23.832031 C 61.199219 23.742188 59.480469 23.742188 57.804688 23.6875 C 57.554688 23.636719 57.300781 23.761719 57.183594 23.988281 C 55.910156 25.757812 54.617188 27.5 53.332031 29.230469 C 52.671875 30.128906 52.007812 31.027344 51.351562 31.933594 C 50.808594 32.496094 50.375 33.15625 50.070312 33.875 C 49.996094 34.316406 49.976562 34.769531 50.011719 35.214844 C 50.011719 35.890625 50.011719 36.5625 50.011719 37.238281 C 50.019531 37.355469 50.003906 37.472656 49.957031 37.582031 C 49.890625 37.6875 49.800781 37.777344 49.691406 37.835938 L 46.308594 40.082031 L 31.523438 50.113281 L 13.53125 62.222656 L 6.21875 67.171875 C 5.019531 67.980469 3.832031 68.78125 2.628906 69.578125 C 1.753906 70.160156 0.667969 70.386719 0.289062 71.480469 C 0.109375 72.117188 0.046875 72.78125 0.109375 73.441406 C 0.1875 76.503906 0.265625 79.566406 0.339844 82.636719 C 0.414062 86.808594 0.492188 90.984375 0.570312 95.167969 C 11.824219 97.585938 23.417969 97.957031 34.800781 96.261719 C 46.632812 94.464844 50.355469 91.550781 59.171875 92.148438 C 73.125 93.101562 90.632812 102.222656 91.210938 111.890625 C 92.355469 131.027344 31.089844 139.035156 31.515625 156.597656 C 32.003906 176.535156 111.535156 189.550781 112.023438 187.859375 C 112.410156 186.425781 54.199219 176.625 53.421875 158.238281 C 52.539062 137.394531 126.359375 122.289062 123.792969 105.585938 C 122.363281 96.277344 98.128906 93.191406 98.605469 90.78125 C 99.085938 88.367188 124.503906 91.117188 153.945312 95.167969 C 153.675781 89.582031 153.273438 80.421875 153.109375 77.515625 Z M 153.109375 77.515625 "/>
<path style=" stroke:none;fill-rule:nonzero;fill:rgb(58.039216%,3.137255%,4.313725%);fill-opacity:1;" d="M 174.945312 40.726562 L 174.945312 39.800781 C 174.988281 39.152344 174.898438 38.5 174.675781 37.890625 C 174.507812 37.539062 174.140625 37.332031 173.757812 37.355469 C 173.128906 37.355469 172.714844 37.746094 172.53125 38.519531 C 172.324219 40.007812 172.246094 41.511719 172.296875 43.011719 C 172.246094 44.527344 172.320312 46.042969 172.53125 47.542969 C 172.714844 48.292969 173.128906 48.703125 173.757812 48.703125 C 174.382812 48.703125 174.832031 48.148438 174.988281 47.035156 C 175.054688 46.238281 175.074219 45.4375 175.058594 44.636719 L 179.238281 44.636719 L 179.238281 45.871094 C 179.238281 49.710938 177.410156 51.632812 173.757812 51.632812 C 171.40625 51.632812 169.816406 50.964844 168.976562 49.632812 C 168.21875 48.4375 167.839844 46.230469 167.839844 43.011719 C 167.839844 39.820312 168.273438 37.589844 169.128906 36.308594 C 169.980469 35.027344 171.535156 34.464844 173.757812 34.464844 C 177.332031 34.464844 179.117188 36.214844 179.117188 39.710938 L 179.117188 40.757812 Z M 174.945312 40.726562 "/>
<path style=" stroke:none;fill-rule:nonzero;fill:rgb(58.039216%,3.137255%,4.313725%);fill-opacity:1;" d="M 180.300781 43.050781 C 180.300781 39.917969 180.742188 37.699219 181.625 36.390625 C 182.507812 35.089844 184.039062 34.429688 186.214844 34.429688 C 188.390625 34.429688 189.953125 35.089844 190.8125 36.390625 C 191.675781 37.695312 192.136719 39.917969 192.136719 43.050781 C 192.136719 46.179688 191.695312 48.398438 190.8125 49.707031 C 189.933594 51.019531 188.398438 51.691406 186.214844 51.691406 C 184.03125 51.691406 182.476562 51.039062 181.625 49.730469 C 180.769531 48.417969 180.300781 46.179688 180.300781 43.050781 Z M 184.785156 43.050781 C 184.734375 44.5625 184.8125 46.078125 185.019531 47.582031 C 185.207031 48.328125 185.617188 48.742188 186.246094 48.742188 C 186.875 48.742188 187.292969 48.359375 187.480469 47.582031 C 187.6875 46.078125 187.765625 44.5625 187.710938 43.050781 C 187.761719 41.546875 187.683594 40.042969 187.480469 38.554688 C 187.292969 37.808594 186.878906 37.394531 186.246094 37.394531 C 185.609375 37.394531 185.207031 37.785156 185.019531 38.554688 C 184.804688 40.042969 184.714844 41.546875 184.757812 43.050781 Z M 184.785156 43.050781 "/>
<path style=" stroke:none;fill-rule:nonzero;fill:rgb(58.039216%,3.137255%,4.313725%);fill-opacity:1;" d="M 193.6875 51.347656 L 193.6875 34.757812 L 198.546875 34.757812 L 201.34375 44.953125 L 201.34375 34.757812 L 205.382812 34.757812 L 205.382812 51.347656 L 200.617188 51.347656 L 197.722656 41.101562 L 197.722656 51.347656 Z M 193.6875 51.347656 "/>
<path style=" stroke:none;fill-rule:nonzero;fill:rgb(58.039216%,3.137255%,4.313725%);fill-opacity:1;" d="M 209.652344 51.347656 L 206.078125 34.757812 L 210.675781 34.757812 L 212.410156 47.257812 L 212.464844 47.257812 L 214.199219 34.757812 L 218.796875 34.757812 L 215.222656 51.347656 Z M 209.652344 51.347656 "/>
<path style=" stroke:none;fill-rule:nonzero;fill:rgb(58.039216%,3.137255%,4.313725%);fill-opacity:1;" d="M 219.492188 51.347656 L 219.492188 34.757812 L 229.304688 34.757812 L 229.304688 38.285156 L 223.808594 38.285156 L 223.808594 41.125 L 228.960938 41.125 L 228.960938 44.515625 L 223.808594 44.515625 L 223.808594 47.8125 L 229.492188 47.8125 L 229.492188 51.347656 Z M 219.492188 51.347656 "/>
<path style=" stroke:none;fill-rule:nonzero;fill:rgb(58.039216%,3.137255%,4.313725%);fill-opacity:1;" d="M 231.09375 51.347656 L 231.09375 34.757812 L 235.945312 34.757812 L 238.75 44.953125 L 238.75 34.757812 L 242.789062 34.757812 L 242.789062 51.347656 L 238.027344 51.347656 L 235.132812 41.101562 L 235.132812 51.347656 Z M 231.09375 51.347656 "/>
<path style=" stroke:none;fill-rule:nonzero;fill:rgb(58.039216%,3.137255%,4.313725%);fill-opacity:1;" d="M 247.007812 51.347656 L 247.007812 38.429688 L 243.761719 38.429688 L 243.761719 34.757812 L 254.574219 34.757812 L 254.574219 38.429688 L 251.328125 38.429688 L 251.328125 51.347656 Z M 247.007812 51.347656 "/>
<path style=" stroke:none;fill-rule:nonzero;fill:rgb(58.039216%,3.137255%,4.313725%);fill-opacity:1;" d="M 255.0625 43.050781 C 255.0625 39.917969 255.503906 37.699219 256.386719 36.390625 C 257.265625 35.089844 258.800781 34.429688 260.976562 34.429688 C 263.152344 34.429688 264.714844 35.089844 265.574219 36.390625 C 266.4375 37.695312 266.882812 39.917969 266.882812 43.050781 C 266.882812 46.179688 266.445312 48.398438 265.570312 49.707031 C 264.695312 51.019531 263.144531 51.691406 260.976562 51.691406 C 258.808594 51.691406 257.238281 51.039062 256.386719 49.730469 C 255.53125 48.417969 255.0625 46.179688 255.0625 43.050781 Z M 259.546875 43.050781 C 259.496094 44.5625 259.574219 46.078125 259.78125 47.582031 C 259.96875 48.328125 260.371094 48.742188 261.007812 48.742188 C 261.640625 48.742188 262.054688 48.359375 262.242188 47.582031 C 262.445312 46.078125 262.523438 44.5625 262.472656 43.050781 C 262.519531 41.546875 262.441406 40.042969 262.242188 38.554688 C 262.054688 37.808594 261.640625 37.394531 261.007812 37.394531 C 260.371094 37.394531 259.96875 37.785156 259.78125 38.554688 C 259.566406 40.042969 259.476562 41.546875 259.519531 43.050781 Z M 259.546875 43.050781 "/>
<path style=" stroke:none;fill-rule:nonzero;fill:rgb(0%,0%,0%);fill-opacity:1;" d="M 178.839844 67.421875 L 174.804688 67.421875 L 174.804688 67.023438 C 174.804688 65.832031 174.390625 65.234375 173.5625 65.234375 C 173.175781 65.210938 172.800781 65.371094 172.550781 65.667969 C 172.320312 65.960938 172.195312 66.328125 172.207031 66.699219 C 172.207031 67.554688 172.8125 68.257812 174.039062 68.8125 C 175.199219 69.304688 176.328125 69.851562 177.429688 70.460938 C 178.660156 71.398438 179.347656 72.890625 179.261719 74.4375 C 179.261719 77.847656 177.304688 79.554688 173.390625 79.554688 C 171.535156 79.554688 170.152344 79.199219 169.253906 78.503906 C 168.355469 77.808594 167.816406 76.535156 167.816406 74.878906 L 167.816406 74.296875 L 172 74.296875 L 172 74.691406 C 172 75.980469 172.46875 76.625 173.414062 76.625 C 173.804688 76.640625 174.179688 76.472656 174.429688 76.167969 C 174.6875 75.84375 174.820312 75.4375 174.804688 75.023438 C 174.804688 74.152344 174.210938 73.457031 173.039062 72.925781 C 171.929688 72.445312 170.847656 71.910156 169.792969 71.320312 C 168.605469 70.417969 167.941406 68.980469 168.027344 67.488281 C 168.027344 64.039062 169.84375 62.308594 173.472656 62.304688 C 175.339844 62.304688 176.710938 62.714844 177.5625 63.527344 C 178.414062 64.335938 178.839844 65.644531 178.839844 67.421875 Z M 178.839844 67.421875 "/>
<path style=" stroke:none;fill-rule:nonzero;fill:rgb(0%,0%,0%);fill-opacity:1;" d="M 179.46875 79.230469 L 183.5 62.640625 L 188.929688 62.640625 L 192.96875 79.230469 L 188.363281 79.230469 L 187.921875 76.324219 L 184.488281 76.324219 L 184.046875 79.230469 Z M 187.425781 73.074219 L 186.246094 66.035156 L 186.191406 66.035156 L 185.011719 73.074219 Z M 187.425781 73.074219 "/>
<path style=" stroke:none;fill-rule:nonzero;fill:rgb(0%,0%,0%);fill-opacity:1;" d="M 193.6875 79.230469 L 193.6875 62.640625 L 198.546875 62.640625 L 201.34375 72.863281 L 201.34375 62.640625 L 205.382812 62.640625 L 205.382812 79.230469 L 200.617188 79.230469 L 197.722656 68.984375 L 197.722656 79.230469 Z M 193.6875 79.230469 "/>
<path style=" stroke:none;fill-rule:nonzero;fill:rgb(0%,0%,0%);fill-opacity:1;" d="M 209.609375 79.230469 L 209.609375 66.3125 L 206.363281 66.3125 L 206.363281 62.640625 L 217.167969 62.640625 L 217.167969 66.3125 L 213.921875 66.3125 L 213.921875 79.230469 Z M 209.609375 79.230469 "/>
<path style=" stroke:none;fill-rule:nonzero;fill:rgb(0%,0%,0%);fill-opacity:1;" d="M 216.824219 79.230469 L 220.863281 62.640625 L 226.292969 62.640625 L 230.332031 79.230469 L 225.753906 79.230469 L 225.3125 76.324219 L 221.878906 76.324219 L 221.4375 79.230469 Z M 224.78125 73.074219 L 223.601562 66.035156 L 223.554688 66.035156 L 222.367188 73.074219 Z M 224.78125 73.074219 "/>
<path style=" stroke:none;fill-rule:nonzero;fill:rgb(58.039216%,3.137255%,4.313725%);fill-opacity:1;" d="M 168.167969 107.113281 L 168.167969 90.523438 L 174.339844 90.523438 L 176.082031 100.375 L 176.125 100.375 L 177.890625 90.523438 L 184.0625 90.523438 L 184.0625 107.113281 L 180.023438 107.113281 L 180.023438 94.757812 L 177.675781 107.113281 L 174.527344 107.113281 L 172.207031 94.757812 L 172.207031 107.113281 Z M 168.167969 107.113281 "/>
<path style=" stroke:none;fill-rule:nonzero;fill:rgb(58.039216%,3.137255%,4.313725%);fill-opacity:1;" d="M 184.621094 107.113281 L 188.660156 90.523438 L 194.089844 90.523438 L 198.082031 107.113281 L 193.492188 107.113281 L 193.050781 104.207031 L 189.632812 104.207031 L 189.191406 107.113281 Z M 192.585938 100.957031 L 191.398438 93.917969 L 191.351562 93.917969 L 190.171875 100.957031 Z M 192.585938 100.957031 "/>
<path style=" stroke:none;fill-rule:nonzero;fill:rgb(58.039216%,3.137255%,4.313725%);fill-opacity:1;" d="M 198.832031 107.113281 L 198.832031 90.523438 L 205.5625 90.523438 C 208.597656 90.523438 210.109375 92.023438 210.109375 94.945312 C 210.109375 97.28125 209.167969 98.597656 207.28125 98.890625 L 207.28125 98.933594 C 208.109375 98.941406 208.890625 99.332031 209.390625 99.992188 C 209.84375 100.804688 210.054688 101.730469 209.996094 102.65625 L 209.996094 104.074219 C 209.929688 104.847656 210 105.625 210.207031 106.371094 C 210.34375 106.5625 210.507812 106.734375 210.691406 106.882812 L 210.691406 107.113281 L 206.09375 107.113281 C 205.75 106.097656 205.613281 105.023438 205.679688 103.953125 L 205.679688 102.835938 C 205.738281 102.195312 205.628906 101.546875 205.367188 100.957031 C 205.109375 100.609375 204.691406 100.425781 204.261719 100.472656 L 203.125 100.472656 L 203.125 107.113281 Z M 203.144531 93.632812 L 203.144531 97.535156 L 204.007812 97.535156 C 205.210938 97.535156 205.816406 96.875 205.816406 95.558594 C 205.816406 94.238281 205.203125 93.632812 203.984375 93.632812 Z M 203.144531 93.632812 "/>
<path style=" stroke:none;fill-rule:nonzero;fill:rgb(58.039216%,3.137255%,4.313725%);fill-opacity:1;" d="M 211.972656 107.113281 L 211.972656 90.523438 L 216.292969 90.523438 L 216.292969 107.113281 Z M 211.972656 107.113281 "/>
<path style=" stroke:none;fill-rule:nonzero;fill:rgb(58.039216%,3.137255%,4.313725%);fill-opacity:1;" d="M 216.847656 107.113281 L 220.886719 90.523438 L 226.3125 90.523438 L 230.351562 107.113281 L 225.753906 107.113281 L 225.320312 104.207031 L 221.878906 104.207031 L 221.4375 107.113281 Z M 224.804688 100.957031 L 223.621094 93.917969 L 223.578125 93.917969 L 222.394531 100.957031 Z M 224.804688 100.957031 "/>
<path style=" stroke:none;fill-rule:nonzero;fill:rgb(0%,0%,0%);fill-opacity:1;" d="M 168.328125 135.003906 L 168.328125 118.40625 L 174.59375 118.40625 C 176.835938 118.40625 178.332031 119.246094 179.082031 120.917969 C 179.578125 122.03125 179.828125 123.960938 179.828125 126.707031 C 179.828125 129.453125 179.578125 131.378906 179.082031 132.488281 C 178.328125 134.164062 176.832031 135.003906 174.59375 135.003906 Z M 172.640625 121.523438 L 172.640625 131.890625 L 173.488281 131.890625 C 174.144531 131.921875 174.757812 131.542969 175.019531 130.9375 C 175.28125 130.261719 175.40625 129.542969 175.386719 128.820312 L 175.386719 124.59375 C 175.410156 123.871094 175.285156 123.148438 175.019531 122.476562 C 174.761719 121.867188 174.148438 121.484375 173.488281 121.523438 Z M 172.640625 121.523438 "/>
<path style=" stroke:none;fill-rule:nonzero;fill:rgb(0%,0%,0%);fill-opacity:1;" d="M 181.632812 135.003906 L 181.632812 118.40625 L 191.449219 118.40625 L 191.449219 121.941406 L 185.945312 121.941406 L 185.945312 124.773438 L 191.097656 124.773438 L 191.097656 128.167969 L 185.945312 128.167969 L 185.945312 131.46875 L 191.660156 131.46875 L 191.660156 135.003906 Z M 181.632812 135.003906 "/>
<path style=" stroke:none;fill-rule:nonzero;fill:rgb(0%,0%,0%);fill-opacity:1;" d="M 193.253906 135.003906 L 193.253906 118.40625 L 197.566406 118.40625 L 197.566406 131.46875 L 202.878906 131.46875 L 202.878906 135.003906 Z M 193.253906 135.003906 "/>
<path style=" stroke:none;fill-rule:nonzero;fill:rgb(0%,0%,0%);fill-opacity:1;" d="M 174.945312 152.269531 L 174.945312 151.339844 C 174.988281 150.691406 174.898438 150.039062 174.675781 149.429688 C 174.507812 149.082031 174.140625 148.871094 173.757812 148.898438 C 173.128906 148.898438 172.714844 149.285156 172.53125 150.058594 C 172.324219 151.546875 172.246094 153.050781 172.296875 154.550781 C 172.246094 156.066406 172.324219 157.582031 172.53125 159.082031 C 172.714844 159.832031 173.128906 160.242188 173.757812 160.242188 C 174.382812 160.242188 174.832031 159.691406 174.988281 158.574219 C 175.054688 157.777344 175.074219 156.976562 175.058594 156.175781 L 179.238281 156.175781 L 179.238281 157.414062 C 179.238281 161.253906 177.410156 163.171875 173.757812 163.171875 C 171.40625 163.171875 169.816406 162.507812 168.976562 161.171875 C 168.21875 159.980469 167.839844 157.773438 167.839844 154.550781 C 167.839844 151.363281 168.273438 149.128906 169.128906 147.847656 C 169.980469 146.570312 171.535156 145.933594 173.757812 145.933594 C 177.332031 145.933594 179.117188 147.679688 179.117188 151.175781 L 179.117188 152.222656 Z M 174.945312 152.269531 "/>
<path style=" stroke:none;fill-rule:nonzero;fill:rgb(0%,0%,0%);fill-opacity:1;" d="M 180.785156 162.886719 L 180.785156 146.292969 L 190.605469 146.292969 L 190.605469 149.804688 L 185.109375 149.804688 L 185.109375 152.640625 L 190.253906 152.640625 L 190.253906 156.035156 L 185.109375 156.035156 L 185.109375 159.332031 L 190.8125 159.332031 L 190.8125 162.867188 Z M 180.785156 162.886719 "/>
<path style=" stroke:none;fill-rule:nonzero;fill:rgb(0%,0%,0%);fill-opacity:1;" d="M 192.390625 162.886719 L 192.390625 146.292969 L 197.246094 146.292969 L 200.050781 156.542969 L 200.050781 146.292969 L 204.066406 146.292969 L 204.066406 162.886719 L 199.300781 162.886719 L 196.410156 152.636719 L 196.410156 162.886719 Z M 192.390625 162.886719 "/>
<path style=" stroke:none;fill-rule:nonzero;fill:rgb(0%,0%,0%);fill-opacity:1;" d="M 211.695312 156.800781 L 211.695312 153.871094 L 217.265625 153.871094 L 217.265625 162.859375 L 214.339844 162.859375 L 214.25 161.359375 L 214.199219 161.359375 C 213.707031 162.558594 212.515625 163.148438 210.632812 163.148438 C 208.609375 163.148438 207.261719 162.402344 206.59375 160.902344 C 206.09375 159.773438 205.847656 157.652344 205.847656 154.539062 C 205.847656 151.542969 206.242188 149.398438 207.035156 148.148438 C 207.949219 146.652344 209.609375 145.902344 212.023438 145.902344 C 215.511719 145.902344 217.257812 147.761719 217.257812 151.480469 L 213.078125 151.480469 C 213.078125 149.714844 212.671875 148.832031 211.851562 148.832031 C 211.183594 148.820312 210.617188 149.324219 210.550781 149.992188 C 210.324219 151.476562 210.238281 152.980469 210.296875 154.484375 C 210.242188 156 210.320312 157.515625 210.527344 159.015625 C 210.714844 159.765625 211.125 160.175781 211.761719 160.175781 C 212.214844 160.199219 212.636719 159.941406 212.824219 159.523438 C 213.132812 158.613281 213.269531 157.65625 213.21875 156.695312 Z M 211.695312 156.800781 "/>
<path style=" stroke:none;fill-rule:nonzero;fill:rgb(0%,0%,0%);fill-opacity:1;" d="M 218.867188 162.886719 L 218.867188 146.292969 L 223.179688 146.292969 L 223.179688 162.886719 Z M 218.867188 162.886719 "/>
<path style=" stroke:none;fill-rule:nonzero;fill:rgb(0%,0%,0%);fill-opacity:1;" d="M 224.570312 154.589844 C 224.570312 151.460938 225.011719 149.238281 225.894531 147.929688 C 226.777344 146.625 228.308594 145.96875 230.488281 145.96875 C 232.671875 145.96875 234.203125 146.625 235.085938 147.929688 C 235.96875 149.238281 236.410156 151.460938 236.410156 154.589844 C 236.410156 157.71875 235.96875 159.941406 235.085938 161.246094 C 234.203125 162.554688 232.671875 163.210938 230.488281 163.210938 C 228.3125 163.210938 226.78125 162.554688 225.894531 161.246094 C 225.007812 159.941406 224.566406 157.71875 224.570312 154.589844 Z M 229.058594 154.589844 C 229.007812 156.105469 229.082031 157.621094 229.289062 159.121094 C 229.476562 159.871094 229.890625 160.28125 230.515625 160.28125 C 231.144531 160.28125 231.5625 159.898438 231.75 159.121094 C 231.953125 157.621094 232.03125 156.105469 231.984375 154.589844 C 232.03125 153.085938 231.953125 151.585938 231.75 150.097656 C 231.5625 149.347656 231.152344 148.933594 230.515625 148.933594 C 229.882812 148.933594 229.476562 149.324219 229.289062 150.097656 C 229.074219 151.582031 228.988281 153.085938 229.027344 154.589844 Z M 229.058594 154.589844 "/>
<path style="fill:none;stroke-width:3.11;stroke-linecap:butt;stroke-linejoin:miter;stroke:rgb(58.039216%,3.137255%,4.313725%);stroke-opacity:1;stroke-miterlimit:10;" d="M 218.317961 43.811669 L 218.317961 220.842105 " transform="matrix(0.74784,0,0,0.748944,0.100377,0)"/>
</g>
</svg>
