<?xml version="1.0" encoding="UTF-8"?>
<svg xmlns="http://www.w3.org/2000/svg" xmlns:xlink="http://www.w3.org/1999/xlink" width="267pt" height="192pt" viewBox="0 0 267 192" version="1.1">
<g id="surface1">
<path style=" stroke:none;fill-rule:nonzero;fill:rgb(100%,100%,100%);fill-opacity:1;" d="M 173.835938 42.71875 L 173.835938 41.820312 C 173.910156 41.144531 173.757812 40.542969 173.535156 39.867188 C 173.386719 39.492188 173.011719 39.34375 172.636719 39.34375 C 172.039062 39.34375 171.589844 39.71875 171.441406 40.542969 C 171.214844 42.042969 171.140625 43.546875 171.214844 45.046875 C 171.140625 46.546875 171.214844 48.046875 171.441406 49.625 C 171.664062 50.375 172.039062 50.824219 172.636719 50.824219 C 173.234375 50.824219 173.683594 50.300781 173.835938 49.171875 C 173.910156 48.347656 173.910156 47.597656 173.910156 46.773438 L 178.101562 46.773438 L 178.101562 48.046875 C 178.101562 51.875 176.304688 53.828125 172.636719 53.828125 C 170.316406 53.828125 168.671875 53.152344 167.847656 51.800781 C 167.097656 50.597656 166.726562 48.421875 166.726562 45.195312 C 166.726562 41.96875 167.175781 39.792969 167.996094 38.519531 C 168.820312 37.242188 170.390625 36.640625 172.636719 36.640625 C 176.230469 36.640625 178.023438 38.367188 178.023438 41.894531 L 178.023438 42.945312 Z M 173.835938 42.71875 "/>
<path style=" stroke:none;fill-rule:nonzero;fill:rgb(100%,100%,100%);fill-opacity:1;" d="M 179.222656 45.046875 C 179.222656 41.894531 179.671875 39.71875 180.570312 38.367188 C 181.46875 37.09375 182.964844 36.417969 185.132812 36.417969 C 187.304688 36.417969 188.875 37.09375 189.699219 38.367188 C 190.523438 39.644531 191.046875 41.894531 191.046875 45.046875 C 191.046875 48.199219 190.597656 50.375 189.699219 51.726562 C 188.800781 53.074219 187.304688 53.75 185.132812 53.75 C 182.964844 53.75 181.390625 53.074219 180.570312 51.800781 C 179.746094 50.523438 179.222656 48.199219 179.222656 45.046875 Z M 183.710938 45.046875 C 183.636719 46.546875 183.710938 48.046875 183.9375 49.625 C 184.160156 50.375 184.535156 50.75 185.132812 50.75 C 185.734375 50.75 186.179688 50.375 186.332031 49.625 C 186.554688 48.125 186.628906 46.621094 186.554688 45.046875 C 186.628906 43.546875 186.554688 42.042969 186.332031 40.542969 C 186.105469 39.792969 185.734375 39.34375 185.132812 39.34375 C 184.535156 39.34375 184.085938 39.71875 183.9375 40.542969 C 183.710938 42.042969 183.636719 43.546875 183.710938 45.046875 Z M 183.710938 45.046875 "/>
<path style=" stroke:none;fill-rule:nonzero;fill:rgb(100%,100%,100%);fill-opacity:1;" d="M 192.617188 53.375 L 192.617188 36.714844 L 197.480469 36.714844 L 200.25 46.921875 L 200.25 36.714844 L 204.289062 36.714844 L 204.289062 53.300781 L 199.5 53.300781 L 196.582031 43.019531 L 196.582031 53.300781 Z M 192.617188 53.375 "/>
<path style=" stroke:none;fill-rule:nonzero;fill:rgb(100%,100%,100%);fill-opacity:1;" d="M 208.554688 53.375 L 204.964844 36.792969 L 209.527344 36.792969 L 211.25 49.324219 L 211.324219 49.324219 L 213.046875 36.792969 L 217.609375 36.792969 L 214.019531 53.375 Z M 208.554688 53.375 "/>
<path style=" stroke:none;fill-rule:nonzero;fill:rgb(100%,100%,100%);fill-opacity:1;" d="M 218.433594 53.375 L 218.433594 36.714844 L 228.238281 36.714844 L 228.238281 40.242188 L 222.699219 40.242188 L 222.699219 43.09375 L 227.863281 43.09375 L 227.863281 46.472656 L 222.699219 46.472656 L 222.699219 49.773438 L 228.386719 49.773438 L 228.386719 53.300781 Z M 218.433594 53.375 "/>
<path style=" stroke:none;fill-rule:nonzero;fill:rgb(100%,100%,100%);fill-opacity:1;" d="M 230.03125 53.375 L 230.03125 36.714844 L 234.898438 36.714844 L 237.742188 46.921875 L 237.742188 36.714844 L 241.78125 36.714844 L 241.78125 53.300781 L 236.992188 53.300781 L 234.074219 43.019531 L 234.074219 53.300781 Z M 230.03125 53.375 "/>
<path style=" stroke:none;fill-rule:nonzero;fill:rgb(100%,100%,100%);fill-opacity:1;" d="M 245.972656 53.375 L 245.972656 40.394531 L 242.753906 40.394531 L 242.753906 36.714844 L 253.605469 36.714844 L 253.605469 40.394531 L 250.386719 40.394531 L 250.386719 53.300781 Z M 245.972656 53.375 "/>
<path style=" stroke:none;fill-rule:nonzero;fill:rgb(100%,100%,100%);fill-opacity:1;" d="M 253.980469 45.046875 C 253.980469 41.894531 254.429688 39.71875 255.328125 38.367188 C 256.222656 37.09375 257.722656 36.417969 259.890625 36.417969 C 262.0625 36.417969 263.632812 37.09375 264.457031 38.367188 C 265.277344 39.644531 265.800781 41.894531 265.800781 45.046875 C 265.800781 48.199219 265.355469 50.375 264.457031 51.726562 C 263.558594 53.074219 262.0625 53.75 259.890625 53.75 C 257.722656 53.75 256.148438 53.074219 255.328125 51.800781 C 254.503906 50.523438 253.980469 48.199219 253.980469 45.046875 Z M 258.46875 45.046875 C 258.394531 46.546875 258.46875 48.046875 258.695312 49.625 C 258.917969 50.375 259.292969 50.75 259.890625 50.75 C 260.488281 50.75 260.9375 50.375 261.089844 49.625 C 261.3125 48.125 261.386719 46.621094 261.3125 45.046875 C 261.386719 43.546875 261.3125 42.042969 261.089844 40.542969 C 260.863281 39.792969 260.488281 39.34375 259.890625 39.34375 C 259.292969 39.34375 258.84375 39.71875 258.695312 40.542969 C 258.542969 42.042969 258.394531 43.546875 258.46875 45.046875 Z M 258.46875 45.046875 "/>
<path style=" stroke:none;fill-rule:nonzero;fill:rgb(100%,100%,100%);fill-opacity:1;" d="M 177.726562 69.433594 L 173.683594 69.433594 L 173.683594 69.058594 C 173.683594 67.859375 173.308594 67.257812 172.414062 67.257812 C 172.039062 67.257812 171.664062 67.410156 171.363281 67.710938 C 171.140625 68.007812 170.992188 68.382812 170.992188 68.757812 C 170.992188 69.585938 171.589844 70.335938 172.863281 70.859375 C 173.984375 71.386719 175.179688 71.910156 176.230469 72.511719 C 177.425781 73.488281 178.175781 74.914062 178.101562 76.488281 C 178.101562 79.941406 176.152344 81.59375 172.1875 81.59375 C 170.316406 81.59375 168.96875 81.214844 168.074219 80.542969 C 167.175781 79.867188 166.652344 78.589844 166.652344 76.9375 L 166.652344 76.339844 L 170.839844 76.339844 L 170.839844 76.714844 C 170.839844 77.988281 171.289062 78.664062 172.261719 78.664062 C 172.636719 78.664062 173.011719 78.515625 173.308594 78.214844 C 173.535156 77.914062 173.683594 77.464844 173.683594 77.089844 C 173.683594 76.1875 173.085938 75.511719 171.890625 74.988281 C 170.765625 74.539062 169.71875 73.9375 168.671875 73.414062 C 167.472656 72.511719 166.800781 71.085938 166.875 69.585938 C 166.875 66.132812 168.671875 64.40625 172.335938 64.40625 C 174.207031 64.40625 175.554688 64.859375 176.453125 65.609375 C 177.277344 66.359375 177.726562 67.632812 177.726562 69.433594 Z M 177.726562 69.433594 "/>
<path style=" stroke:none;fill-rule:nonzero;fill:rgb(100%,100%,100%);fill-opacity:1;" d="M 178.324219 81.292969 L 182.363281 64.707031 L 187.828125 64.707031 L 191.867188 81.292969 L 187.230469 81.292969 L 186.78125 78.363281 L 183.339844 78.363281 L 182.890625 81.292969 Z M 186.332031 75.136719 L 185.132812 68.085938 L 185.058594 68.085938 L 183.863281 75.136719 Z M 186.332031 75.136719 "/>
<path style=" stroke:none;fill-rule:nonzero;fill:rgb(100%,100%,100%);fill-opacity:1;" d="M 192.617188 81.292969 L 192.617188 64.632812 L 197.480469 64.632812 L 200.25 74.914062 L 200.25 64.632812 L 204.289062 64.632812 L 204.289062 81.292969 L 199.5 81.292969 L 196.582031 71.011719 L 196.582031 81.292969 Z M 192.617188 81.292969 "/>
<path style=" stroke:none;fill-rule:nonzero;fill:rgb(100%,100%,100%);fill-opacity:1;" d="M 208.480469 81.292969 L 208.480469 68.308594 L 205.265625 68.308594 L 205.265625 64.632812 L 216.113281 64.632812 L 216.113281 68.308594 L 212.898438 68.308594 L 212.898438 81.292969 Z M 208.480469 81.292969 "/>
<path style=" stroke:none;fill-rule:nonzero;fill:rgb(100%,100%,100%);fill-opacity:1;" d="M 215.738281 81.292969 L 219.78125 64.707031 L 225.242188 64.707031 L 229.285156 81.292969 L 224.71875 81.292969 L 224.269531 78.363281 L 220.828125 78.363281 L 220.378906 81.292969 Z M 223.671875 75.136719 L 222.476562 68.085938 L 222.398438 68.085938 L 221.203125 75.136719 Z M 223.671875 75.136719 "/>
<path style=" stroke:none;fill-rule:nonzero;fill:rgb(100%,100%,100%);fill-opacity:1;" d="M 167.023438 109.207031 L 167.023438 92.625 L 173.234375 92.625 L 174.957031 102.453125 L 175.03125 102.453125 L 176.828125 92.625 L 183.039062 92.625 L 183.039062 109.207031 L 178.996094 109.207031 L 178.996094 96.824219 L 176.679688 109.207031 L 173.535156 109.207031 L 171.214844 96.824219 L 171.214844 109.207031 Z M 167.023438 109.207031 "/>
<path style=" stroke:none;fill-rule:nonzero;fill:rgb(100%,100%,100%);fill-opacity:1;" d="M 183.488281 109.207031 L 187.527344 92.625 L 192.992188 92.625 L 196.957031 109.207031 L 192.394531 109.207031 L 191.945312 106.28125 L 188.5 106.28125 L 188.050781 109.207031 Z M 191.496094 103.054688 L 190.296875 96 L 190.222656 96 L 189.023438 103.054688 Z M 191.496094 103.054688 "/>
<path style=" stroke:none;fill-rule:nonzero;fill:rgb(100%,100%,100%);fill-opacity:1;" d="M 197.707031 109.207031 L 197.707031 92.625 L 204.441406 92.625 C 207.507812 92.625 209.003906 94.125 209.003906 97.050781 C 209.003906 99.375 208.03125 100.726562 206.160156 101.027344 L 206.160156 101.101562 C 206.984375 101.101562 207.734375 101.476562 208.257812 102.152344 C 208.707031 102.980469 208.929688 103.878906 208.855469 104.855469 L 208.855469 106.28125 C 208.78125 107.03125 208.855469 107.855469 209.082031 108.605469 C 209.230469 108.832031 209.378906 108.980469 209.527344 109.132812 L 209.527344 109.359375 L 204.964844 109.359375 C 204.589844 108.308594 204.515625 107.257812 204.589844 106.207031 L 204.589844 105.082031 C 204.664062 104.40625 204.515625 103.804688 204.289062 103.203125 C 204.066406 102.828125 203.617188 102.679688 203.167969 102.753906 L 202.046875 102.753906 L 202.046875 109.433594 L 197.707031 109.433594 Z M 202.046875 95.699219 L 202.046875 99.601562 L 202.867188 99.601562 C 204.066406 99.601562 204.664062 98.925781 204.664062 97.652344 C 204.664062 96.375 204.066406 95.699219 202.792969 95.699219 Z M 202.046875 95.699219 "/>
<path style=" stroke:none;fill-rule:nonzero;fill:rgb(100%,100%,100%);fill-opacity:1;" d="M 210.875 109.207031 L 210.875 92.625 L 215.214844 92.625 L 215.214844 109.207031 Z M 210.875 109.207031 "/>
<path style=" stroke:none;fill-rule:nonzero;fill:rgb(100%,100%,100%);fill-opacity:1;" d="M 215.738281 109.207031 L 219.78125 92.625 L 225.242188 92.625 L 229.285156 109.207031 L 224.71875 109.207031 L 224.269531 106.28125 L 220.828125 106.28125 L 220.378906 109.207031 Z M 223.746094 103.054688 L 222.550781 96 L 222.476562 96 L 221.277344 103.054688 Z M 223.746094 103.054688 "/>
<path style=" stroke:none;fill-rule:nonzero;fill:rgb(100%,100%,100%);fill-opacity:1;" d="M 167.25 137.199219 L 167.25 120.539062 L 173.535156 120.539062 C 175.78125 120.539062 177.277344 121.363281 178.023438 123.089844 C 178.546875 124.214844 178.773438 126.167969 178.773438 128.867188 C 178.773438 131.644531 178.546875 133.519531 178.023438 134.648438 C 177.277344 136.296875 175.78125 137.199219 173.535156 137.199219 Z M 171.515625 123.691406 L 171.515625 134.046875 L 172.335938 134.046875 C 173.011719 134.046875 173.609375 133.671875 173.835938 133.070312 C 174.132812 132.394531 174.207031 131.644531 174.207031 130.96875 L 174.207031 126.765625 C 174.207031 126.015625 174.132812 125.339844 173.835938 124.667969 C 173.609375 124.066406 172.9375 123.691406 172.335938 123.691406 Z M 171.515625 123.691406 "/>
<path style=" stroke:none;fill-rule:nonzero;fill:rgb(100%,100%,100%);fill-opacity:1;" d="M 180.496094 137.199219 L 180.496094 120.539062 L 190.296875 120.539062 L 190.296875 124.066406 L 184.761719 124.066406 L 184.761719 126.917969 L 189.921875 126.917969 L 189.921875 130.292969 L 184.761719 130.292969 L 184.761719 133.597656 L 190.445312 133.597656 L 190.445312 137.121094 L 180.496094 137.121094 Z M 180.496094 137.199219 "/>
<path style=" stroke:none;fill-rule:nonzero;fill:rgb(100%,100%,100%);fill-opacity:1;" d="M 192.167969 137.199219 L 192.167969 120.539062 L 196.507812 120.539062 L 196.507812 133.597656 L 201.820312 133.597656 L 201.820312 137.121094 L 192.167969 137.121094 Z M 192.167969 137.199219 "/>
<path style=" stroke:none;fill-rule:nonzero;fill:rgb(100%,100%,100%);fill-opacity:1;" d="M 173.835938 154.457031 L 173.835938 153.558594 C 173.910156 152.882812 173.757812 152.28125 173.535156 151.605469 C 173.386719 151.230469 173.011719 151.082031 172.636719 151.082031 C 172.039062 151.082031 171.589844 151.457031 171.441406 152.28125 C 171.214844 153.78125 171.140625 155.285156 171.214844 156.785156 C 171.140625 158.285156 171.214844 159.785156 171.441406 161.363281 C 171.664062 162.113281 172.039062 162.5625 172.636719 162.5625 C 173.234375 162.5625 173.683594 162.035156 173.835938 160.910156 C 173.910156 160.085938 173.910156 159.335938 173.910156 158.511719 L 178.101562 158.511719 L 178.101562 159.710938 C 178.101562 163.539062 176.304688 165.488281 172.636719 165.488281 C 170.316406 165.488281 168.671875 164.8125 167.847656 163.460938 C 167.097656 162.261719 166.726562 160.085938 166.726562 156.859375 C 166.726562 153.632812 167.175781 151.457031 167.996094 150.179688 C 168.820312 148.90625 170.390625 148.230469 172.636719 148.230469 C 176.230469 148.230469 178.023438 149.957031 178.023438 153.480469 L 178.023438 154.53125 Z M 173.835938 154.457031 "/>
<path style=" stroke:none;fill-rule:nonzero;fill:rgb(100%,100%,100%);fill-opacity:1;" d="M 179.671875 165.113281 L 179.671875 148.453125 L 189.472656 148.453125 L 189.472656 151.980469 L 183.9375 151.980469 L 183.9375 154.832031 L 189.101562 154.832031 L 189.101562 158.210938 L 183.9375 158.210938 L 183.9375 161.511719 L 189.625 161.511719 L 189.625 165.039062 Z M 179.671875 165.113281 "/>
<path style=" stroke:none;fill-rule:nonzero;fill:rgb(100%,100%,100%);fill-opacity:1;" d="M 191.269531 165.113281 L 191.269531 148.453125 L 196.132812 148.453125 L 198.976562 158.734375 L 198.976562 148.453125 L 203.019531 148.453125 L 203.019531 165.113281 L 198.230469 165.113281 L 195.3125 154.832031 L 195.3125 165.113281 Z M 191.269531 165.113281 "/>
<path style=" stroke:none;fill-rule:nonzero;fill:rgb(100%,100%,100%);fill-opacity:1;" d="M 210.578125 159.035156 L 210.578125 156.109375 L 216.1875 156.109375 L 216.1875 165.113281 L 213.269531 165.113281 L 213.195312 163.613281 L 213.121094 163.613281 C 212.597656 164.8125 211.398438 165.414062 209.527344 165.414062 C 207.507812 165.414062 206.160156 164.664062 205.488281 163.164062 C 204.964844 162.035156 204.738281 159.9375 204.738281 156.785156 C 204.738281 153.78125 205.113281 151.605469 205.9375 150.40625 C 206.835938 148.90625 208.480469 148.152344 210.949219 148.152344 C 214.46875 148.152344 216.1875 150.03125 216.1875 153.707031 L 212 153.707031 C 212 151.90625 211.625 151.082031 210.800781 151.082031 C 210.128906 151.082031 209.527344 151.605469 209.527344 152.28125 C 209.304688 153.78125 209.230469 155.285156 209.304688 156.785156 C 209.230469 158.285156 209.304688 159.785156 209.527344 161.363281 C 209.753906 162.113281 210.128906 162.5625 210.726562 162.5625 C 211.175781 162.5625 211.625 162.335938 211.773438 161.886719 C 212.074219 160.988281 212.222656 160.011719 212.148438 159.035156 Z M 210.578125 159.035156 "/>
<path style=" stroke:none;fill-rule:nonzero;fill:rgb(100%,100%,100%);fill-opacity:1;" d="M 217.761719 165.113281 L 217.761719 148.453125 L 222.101562 148.453125 L 222.101562 165.113281 Z M 217.761719 165.113281 "/>
<path style=" stroke:none;fill-rule:nonzero;fill:rgb(100%,100%,100%);fill-opacity:1;" d="M 223.523438 156.785156 C 223.523438 153.632812 223.972656 151.457031 224.871094 150.105469 C 225.769531 148.753906 227.265625 148.152344 229.433594 148.152344 C 231.605469 148.152344 233.175781 148.828125 234 150.105469 C 234.824219 151.382812 235.347656 153.632812 235.347656 156.785156 C 235.347656 159.9375 234.898438 162.113281 234 163.460938 C 233.101562 164.738281 231.605469 165.414062 229.433594 165.414062 C 227.265625 165.414062 225.691406 164.738281 224.871094 163.460938 C 223.898438 162.1875 223.523438 159.9375 223.523438 156.785156 Z M 228.011719 156.785156 C 227.9375 158.285156 228.011719 159.785156 228.238281 161.363281 C 228.460938 162.113281 228.835938 162.5625 229.433594 162.5625 C 230.03125 162.5625 230.480469 162.1875 230.632812 161.363281 C 230.855469 159.859375 230.929688 158.359375 230.855469 156.785156 C 230.929688 155.285156 230.855469 153.78125 230.632812 152.28125 C 230.40625 151.53125 230.03125 151.082031 229.433594 151.082031 C 228.835938 151.082031 228.386719 151.457031 228.238281 152.28125 C 228.011719 153.78125 227.9375 155.285156 228.011719 156.785156 Z M 228.011719 156.785156 "/>
<path style="fill:none;stroke-width:3.11;stroke-linecap:butt;stroke-linejoin:miter;stroke:rgb(100%,100%,100%);stroke-opacity:1;stroke-miterlimit:10;" d="M 216.798596 46.299907 L 216.798596 223.29965 " transform="matrix(0.748318,0,0,0.75042,0,0.0212304)"/>
<path style=" stroke:none;fill-rule:nonzero;fill:rgb(100%,100%,100%);fill-opacity:1;" d="M 155.574219 81.140625 C 155.425781 78.890625 155.203125 74.761719 155.203125 74.761719 C 155.125 73.488281 155.125 72.886719 155.050781 71.6875 L 154.753906 66.957031 C 154.675781 66.207031 154.976562 63.808594 154.304688 63.355469 C 154.003906 63.207031 153.78125 63.132812 153.480469 63.132812 C 153.40625 63.355469 153.332031 63.507812 153.332031 63.730469 C 153.332031 63.957031 153.253906 64.183594 153.105469 64.332031 C 152.132812 65.382812 152.058594 63.054688 152.058594 62.757812 C 152.058594 62.679688 152.058594 62.679688 151.984375 62.605469 C 151.984375 62.53125 151.910156 62.53125 151.832031 62.53125 C 151.535156 62.382812 151.160156 62.382812 150.859375 62.53125 C 150.5625 62.679688 150.335938 64.105469 150.335938 64.105469 C 148.765625 64.105469 150.261719 62.679688 149.664062 61.929688 C 149.363281 61.554688 148.617188 61.480469 148.167969 61.40625 C 148.167969 62.007812 148.167969 62.605469 148.167969 63.207031 C 148.015625 63.207031 147.121094 62.90625 147.121094 62.757812 C 146.96875 59.078125 146.671875 55.328125 146.671875 51.648438 C 146.519531 47.449219 146.371094 43.171875 146.222656 38.96875 C 146.148438 36.867188 146.070312 34.765625 145.996094 32.589844 C 145.921875 31.089844 145.398438 28.835938 146.148438 27.410156 C 146.445312 26.886719 146.820312 26.4375 147.269531 25.984375 C 145.847656 25.386719 144.351562 24.785156 142.855469 24.261719 C 142.628906 24.183594 142.480469 24.109375 142.332031 23.960938 C 142.253906 23.808594 142.179688 23.660156 142.105469 23.507812 C 140.382812 16.832031 138.589844 10.152344 136.792969 3.472656 C 135.820312 10.527344 134.773438 17.582031 133.800781 24.558594 C 133.800781 24.710938 133.722656 24.933594 133.648438 25.085938 C 133.574219 25.234375 133.425781 25.308594 133.277344 25.386719 C 132.902344 25.609375 131.703125 26.136719 129.984375 26.886719 C 130.65625 27.113281 131.105469 27.636719 131.40625 28.238281 C 131.480469 28.460938 131.554688 28.6875 131.554688 28.914062 C 131.628906 31.164062 131.628906 33.414062 131.703125 35.667969 C 131.855469 40.84375 132.078125 46.097656 132.226562 51.273438 L 127.140625 49.171875 L 106.933594 40.917969 C 100.199219 38.144531 93.390625 35.367188 86.65625 32.589844 C 86.28125 32.4375 85.90625 32.289062 85.53125 32.289062 C 85.234375 32.289062 84.933594 32.363281 84.710938 32.515625 L 83.4375 33.039062 C 83.136719 33.191406 82.839844 33.265625 82.613281 33.265625 C 82.390625 33.265625 82.164062 33.191406 81.941406 33.039062 C 78.347656 31.3125 74.757812 29.585938 71.089844 28.011719 C 70.789062 27.863281 70.417969 27.710938 70.117188 27.636719 C 68.546875 27.1875 66.75 27.488281 65.105469 27.335938 C 63.457031 27.1875 61.734375 27.261719 60.089844 27.1875 C 59.867188 27.113281 59.566406 27.261719 59.492188 27.488281 C 58.21875 29.289062 56.945312 31.011719 55.601562 32.738281 C 54.925781 33.640625 54.253906 34.539062 53.578125 35.441406 C 53.054688 36.042969 52.605469 36.640625 52.308594 37.390625 C 52.234375 37.84375 52.234375 38.292969 52.234375 38.742188 C 52.234375 39.417969 52.234375 40.09375 52.234375 40.769531 C 52.234375 40.917969 52.234375 40.996094 52.15625 41.144531 C 52.082031 41.21875 52.007812 41.371094 51.859375 41.371094 L 48.492188 43.621094 L 33.898438 53.675781 L 15.9375 65.832031 L 8.605469 70.785156 C 7.410156 71.613281 6.210938 72.363281 5.015625 73.1875 C 4.117188 73.789062 3.066406 74.011719 2.695312 75.0625 C 2.46875 75.738281 2.394531 76.414062 2.46875 77.089844 C 2.542969 80.167969 2.617188 83.242188 2.695312 86.320312 C 2.769531 90.523438 2.84375 94.648438 2.917969 98.851562 C 14.144531 101.253906 25.742188 101.628906 37.191406 99.976562 C 49.015625 98.175781 52.757812 95.25 61.585938 95.851562 C 75.582031 96.824219 93.089844 105.90625 93.613281 115.660156 C 94.738281 134.871094 33.449219 142.828125 33.898438 160.460938 C 34.421875 180.421875 113.96875 193.480469 114.492188 191.753906 C 114.867188 190.328125 56.648438 180.496094 55.824219 162.035156 C 54.925781 141.175781 128.785156 126.015625 126.242188 109.28125 C 124.820312 99.976562 100.574219 96.824219 101.023438 94.425781 C 101.472656 92.023438 126.914062 94.722656 156.398438 98.851562 C 156.175781 93.222656 155.726562 84.066406 155.574219 81.140625 Z M 155.574219 81.140625 "/>
<path style=" stroke:none;fill-rule:nonzero;fill:rgb(58.039216%,3.137255%,4.313725%);fill-opacity:1;" d="M 153.105469 77.691406 C 152.957031 75.4375 152.730469 71.3125 152.730469 71.3125 C 152.65625 70.035156 152.65625 69.433594 152.582031 68.234375 L 152.28125 63.507812 C 152.207031 62.757812 152.507812 60.355469 151.832031 59.90625 C 151.535156 59.753906 151.308594 59.679688 151.011719 59.679688 C 150.9375 59.90625 150.859375 60.054688 150.859375 60.28125 C 150.859375 60.503906 150.785156 60.730469 150.636719 60.878906 C 149.664062 61.929688 149.589844 59.605469 149.589844 59.304688 C 149.589844 59.230469 149.589844 59.230469 149.515625 59.15625 C 149.515625 59.078125 149.4375 59.078125 149.363281 59.078125 C 149.066406 58.929688 148.691406 58.929688 148.390625 59.078125 C 148.09375 59.230469 147.867188 60.65625 147.867188 60.65625 C 146.296875 60.65625 147.792969 59.230469 147.195312 58.480469 C 146.894531 58.105469 146.148438 58.027344 145.699219 57.953125 C 145.699219 58.554688 145.699219 59.15625 145.699219 59.753906 C 145.546875 59.753906 144.648438 59.453125 144.648438 59.304688 C 144.5 55.628906 144.199219 51.875 144.199219 48.199219 C 144.050781 43.996094 143.902344 39.71875 143.753906 35.515625 C 143.675781 33.414062 143.601562 31.3125 143.527344 29.136719 C 143.453125 27.636719 142.929688 25.386719 143.675781 23.960938 C 143.976562 23.433594 144.351562 22.984375 144.800781 22.535156 C 143.378906 21.933594 141.882812 21.332031 140.382812 20.808594 C 140.160156 20.734375 140.011719 20.65625 139.859375 20.507812 C 139.785156 20.359375 139.710938 20.207031 139.636719 20.058594 C 137.914062 13.378906 136.117188 6.699219 134.324219 0.0195312 C 133.351562 7.074219 132.300781 14.128906 131.328125 21.109375 C 131.328125 21.257812 131.253906 21.484375 131.179688 21.632812 C 131.105469 21.785156 130.957031 21.859375 130.804688 21.933594 C 130.433594 22.160156 129.234375 22.683594 127.511719 23.433594 C 128.1875 23.660156 128.636719 24.183594 128.933594 24.785156 C 129.011719 25.011719 129.085938 25.234375 129.085938 25.460938 C 129.160156 27.710938 129.160156 29.964844 129.234375 32.214844 C 129.382812 37.390625 129.609375 42.644531 129.757812 47.824219 L 124.667969 45.722656 L 104.464844 37.46875 C 97.730469 34.691406 90.921875 31.914062 84.1875 29.136719 C 83.8125 28.988281 83.4375 28.835938 83.0625 28.835938 C 82.765625 28.835938 82.464844 28.914062 82.238281 29.0625 L 80.96875 29.585938 C 80.667969 29.738281 80.371094 29.8125 80.144531 29.8125 C 79.921875 29.8125 79.695312 29.738281 79.472656 29.585938 C 75.878906 27.863281 72.289062 26.136719 68.621094 24.558594 C 68.320312 24.410156 67.949219 24.261719 67.648438 24.183594 C 66.078125 23.734375 64.28125 24.035156 62.632812 23.882812 C 60.988281 23.734375 59.265625 23.808594 57.621094 23.734375 C 57.394531 23.660156 57.097656 23.808594 57.023438 24.035156 C 55.75 25.835938 54.476562 27.5625 53.128906 29.289062 C 52.457031 30.1875 51.785156 31.089844 51.109375 31.988281 C 50.585938 32.589844 50.136719 33.191406 49.839844 33.941406 C 49.761719 34.390625 49.761719 34.839844 49.761719 35.289062 C 49.761719 35.964844 49.761719 36.640625 49.761719 37.316406 C 49.761719 37.46875 49.761719 37.542969 49.6875 37.691406 C 49.613281 37.765625 49.539062 37.917969 49.390625 37.917969 L 46.023438 40.167969 L 31.429688 50.222656 L 13.46875 62.382812 L 6.136719 67.332031 C 4.9375 68.160156 3.742188 68.910156 2.542969 69.734375 C 1.644531 70.335938 0.597656 70.5625 0.222656 71.613281 C 0 72.285156 -0.0742188 72.960938 0 73.636719 C 0.0742188 76.714844 0.148438 79.789062 0.222656 82.867188 C 0.300781 87.070312 0.375 91.199219 0.449219 95.398438 C 11.671875 97.800781 23.273438 98.175781 34.722656 96.523438 C 46.546875 94.722656 50.285156 91.796875 59.117188 92.398438 C 73.109375 93.375 90.621094 102.453125 91.144531 112.210938 C 92.269531 131.417969 30.980469 139.375 31.429688 157.007812 C 31.953125 176.96875 111.5 190.027344 112.023438 188.300781 C 112.398438 186.875 54.179688 177.046875 53.355469 158.585938 C 52.457031 137.722656 126.316406 122.566406 123.773438 105.832031 C 122.351562 96.523438 98.105469 93.375 98.554688 90.972656 C 99.003906 88.570312 124.445312 91.273438 153.929688 95.398438 C 153.703125 89.773438 153.253906 80.617188 153.105469 77.691406 Z M 153.105469 77.691406 "/>
<path style=" stroke:none;fill-rule:nonzero;fill:rgb(58.039216%,3.137255%,4.313725%);fill-opacity:1;" d="M 174.957031 40.84375 L 174.957031 39.945312 C 175.03125 39.269531 174.882812 38.667969 174.65625 37.992188 C 174.507812 37.617188 174.132812 37.46875 173.757812 37.46875 C 173.160156 37.46875 172.710938 37.84375 172.5625 38.667969 C 172.335938 40.167969 172.261719 41.667969 172.335938 43.171875 C 172.261719 44.671875 172.335938 46.171875 172.5625 47.746094 C 172.785156 48.5 173.160156 48.949219 173.757812 48.949219 C 174.359375 48.949219 174.808594 48.421875 174.957031 47.296875 C 175.03125 46.472656 175.03125 45.722656 175.03125 44.894531 L 179.222656 44.894531 L 179.222656 46.171875 C 179.222656 50 177.425781 51.949219 173.757812 51.949219 C 171.441406 51.949219 169.792969 51.273438 168.96875 49.925781 C 168.222656 48.722656 167.847656 46.546875 167.847656 43.320312 C 167.847656 40.09375 168.296875 37.917969 169.121094 36.640625 C 169.941406 35.367188 171.515625 34.765625 173.757812 34.765625 C 177.351562 34.765625 179.148438 36.492188 179.148438 40.019531 L 179.148438 41.070312 Z M 174.957031 40.84375 "/>
<path style=" stroke:none;fill-rule:nonzero;fill:rgb(58.039216%,3.137255%,4.313725%);fill-opacity:1;" d="M 180.34375 43.171875 C 180.34375 40.019531 180.792969 37.84375 181.691406 36.492188 C 182.589844 35.214844 184.085938 34.539062 186.257812 34.539062 C 188.425781 34.539062 189.996094 35.214844 190.820312 36.492188 C 191.644531 37.765625 192.167969 40.019531 192.167969 43.171875 C 192.167969 46.320312 191.71875 48.5 190.820312 49.847656 C 189.921875 51.199219 188.425781 51.875 186.257812 51.875 C 184.085938 51.875 182.515625 51.199219 181.691406 49.925781 C 180.867188 48.648438 180.34375 46.320312 180.34375 43.171875 Z M 184.835938 43.171875 C 184.761719 44.671875 184.835938 46.171875 185.058594 47.746094 C 185.285156 48.5 185.65625 48.875 186.257812 48.875 C 186.855469 48.875 187.304688 48.5 187.453125 47.746094 C 187.679688 46.246094 187.753906 44.746094 187.679688 43.171875 C 187.753906 41.667969 187.679688 40.167969 187.453125 38.667969 C 187.230469 37.917969 186.855469 37.46875 186.257812 37.46875 C 185.65625 37.46875 185.207031 37.84375 185.058594 38.667969 C 184.835938 40.167969 184.761719 41.667969 184.835938 43.171875 Z M 184.835938 43.171875 "/>
<path style=" stroke:none;fill-rule:nonzero;fill:rgb(58.039216%,3.137255%,4.313725%);fill-opacity:1;" d="M 193.738281 51.5 L 193.738281 34.839844 L 198.605469 34.839844 L 201.371094 45.046875 L 201.371094 34.839844 L 205.414062 34.839844 L 205.414062 51.425781 L 200.625 51.425781 L 197.707031 41.144531 L 197.707031 51.425781 Z M 193.738281 51.5 "/>
<path style=" stroke:none;fill-rule:nonzero;fill:rgb(58.039216%,3.137255%,4.313725%);fill-opacity:1;" d="M 209.679688 51.5 L 206.085938 34.914062 L 210.652344 34.914062 L 212.371094 47.449219 L 212.449219 47.449219 L 214.167969 34.914062 L 218.734375 34.914062 L 215.140625 51.5 Z M 209.679688 51.5 "/>
<path style=" stroke:none;fill-rule:nonzero;fill:rgb(58.039216%,3.137255%,4.313725%);fill-opacity:1;" d="M 219.554688 51.5 L 219.554688 34.839844 L 229.359375 34.839844 L 229.359375 38.367188 L 223.820312 38.367188 L 223.820312 41.21875 L 228.984375 41.21875 L 228.984375 44.597656 L 223.820312 44.597656 L 223.820312 47.898438 L 229.507812 47.898438 L 229.507812 51.425781 Z M 219.554688 51.5 "/>
<path style=" stroke:none;fill-rule:nonzero;fill:rgb(58.039216%,3.137255%,4.313725%);fill-opacity:1;" d="M 231.15625 51.5 L 231.15625 34.839844 L 236.019531 34.839844 L 238.863281 45.046875 L 238.863281 34.839844 L 242.902344 34.839844 L 242.902344 51.425781 L 238.113281 51.425781 L 235.195312 41.144531 L 235.195312 51.425781 Z M 231.15625 51.5 "/>
<path style=" stroke:none;fill-rule:nonzero;fill:rgb(58.039216%,3.137255%,4.313725%);fill-opacity:1;" d="M 247.09375 51.5 L 247.09375 38.519531 L 243.878906 38.519531 L 243.878906 34.839844 L 254.726562 34.839844 L 254.726562 38.519531 L 251.511719 38.519531 L 251.511719 51.425781 Z M 247.09375 51.5 "/>
<path style=" stroke:none;fill-rule:nonzero;fill:rgb(58.039216%,3.137255%,4.313725%);fill-opacity:1;" d="M 255.101562 43.171875 C 255.101562 40.019531 255.550781 37.84375 256.449219 36.492188 C 257.347656 35.214844 258.84375 34.539062 261.011719 34.539062 C 263.183594 34.539062 264.753906 35.214844 265.578125 36.492188 C 266.402344 37.765625 266.925781 40.019531 266.925781 43.171875 C 266.925781 46.320312 266.476562 48.5 265.578125 49.847656 C 264.679688 51.199219 263.183594 51.875 261.011719 51.875 C 258.84375 51.875 257.273438 51.199219 256.449219 49.925781 C 255.625 48.648438 255.101562 46.320312 255.101562 43.171875 Z M 259.589844 43.171875 C 259.515625 44.671875 259.589844 46.171875 259.816406 47.746094 C 260.039062 48.5 260.414062 48.875 261.011719 48.875 C 261.613281 48.875 262.0625 48.5 262.210938 47.746094 C 262.433594 46.246094 262.511719 44.746094 262.433594 43.171875 C 262.511719 41.667969 262.433594 40.167969 262.210938 38.667969 C 261.984375 37.917969 261.613281 37.46875 261.011719 37.46875 C 260.414062 37.46875 259.964844 37.84375 259.816406 38.667969 C 259.667969 40.167969 259.515625 41.667969 259.589844 43.171875 Z M 259.589844 43.171875 "/>
<path style=" stroke:none;fill-rule:nonzero;fill:rgb(0%,0%,0%);fill-opacity:1;" d="M 178.847656 67.558594 L 174.808594 67.558594 L 174.808594 67.183594 C 174.808594 65.984375 174.433594 65.382812 173.535156 65.382812 C 173.160156 65.382812 172.785156 65.53125 172.488281 65.832031 C 172.261719 66.132812 172.113281 66.507812 172.113281 66.882812 C 172.113281 67.710938 172.710938 68.460938 173.984375 68.984375 C 175.105469 69.511719 176.304688 70.035156 177.351562 70.636719 C 178.546875 71.613281 179.296875 73.039062 179.222656 74.613281 C 179.222656 78.066406 177.277344 79.714844 173.308594 79.714844 C 171.441406 79.714844 170.09375 79.339844 169.195312 78.664062 C 168.296875 77.988281 167.773438 76.714844 167.773438 75.0625 L 167.773438 74.464844 L 171.964844 74.464844 L 171.964844 74.839844 C 171.964844 76.113281 172.414062 76.789062 173.386719 76.789062 C 173.757812 76.789062 174.132812 76.640625 174.433594 76.339844 C 174.65625 76.039062 174.808594 75.589844 174.808594 75.214844 C 174.808594 74.3125 174.207031 73.636719 173.011719 73.113281 C 171.890625 72.660156 170.839844 72.0625 169.792969 71.535156 C 168.597656 70.636719 167.921875 69.210938 167.996094 67.710938 C 167.996094 64.257812 169.792969 62.53125 173.460938 62.53125 C 175.332031 62.53125 176.679688 62.980469 177.574219 63.730469 C 178.398438 64.480469 178.847656 65.757812 178.847656 67.558594 Z M 178.847656 67.558594 "/>
<path style=" stroke:none;fill-rule:nonzero;fill:rgb(0%,0%,0%);fill-opacity:1;" d="M 179.445312 79.414062 L 183.488281 62.832031 L 188.949219 62.832031 L 192.992188 79.414062 L 188.351562 79.414062 L 187.902344 76.488281 L 184.460938 76.488281 L 184.011719 79.414062 Z M 187.453125 73.261719 L 186.257812 66.207031 L 186.179688 66.207031 L 184.984375 73.261719 Z M 187.453125 73.261719 "/>
<path style=" stroke:none;fill-rule:nonzero;fill:rgb(0%,0%,0%);fill-opacity:1;" d="M 193.738281 79.414062 L 193.738281 62.757812 L 198.605469 62.757812 L 201.371094 73.039062 L 201.371094 62.757812 L 205.414062 62.757812 L 205.414062 79.414062 L 200.625 79.414062 L 197.707031 69.136719 L 197.707031 79.414062 Z M 193.738281 79.414062 "/>
<path style=" stroke:none;fill-rule:nonzero;fill:rgb(0%,0%,0%);fill-opacity:1;" d="M 209.605469 79.414062 L 209.605469 66.433594 L 206.386719 66.433594 L 206.386719 62.757812 L 217.238281 62.757812 L 217.238281 66.433594 L 214.019531 66.433594 L 214.019531 79.414062 Z M 209.605469 79.414062 "/>
<path style=" stroke:none;fill-rule:nonzero;fill:rgb(0%,0%,0%);fill-opacity:1;" d="M 216.863281 79.414062 L 220.902344 62.832031 L 226.367188 62.832031 L 230.40625 79.414062 L 225.84375 79.414062 L 225.394531 76.488281 L 221.953125 76.488281 L 221.503906 79.414062 Z M 224.792969 73.261719 L 223.597656 66.207031 L 223.523438 66.207031 L 222.324219 73.261719 Z M 224.792969 73.261719 "/>
<path style=" stroke:none;fill-rule:nonzero;fill:rgb(58.039216%,3.137255%,4.313725%);fill-opacity:1;" d="M 168.148438 107.332031 L 168.148438 90.746094 L 174.359375 90.746094 L 176.078125 100.578125 L 176.152344 100.578125 L 177.949219 90.746094 L 184.160156 90.746094 L 184.160156 107.332031 L 180.121094 107.332031 L 180.121094 94.949219 L 177.800781 107.332031 L 174.65625 107.332031 L 172.335938 94.949219 L 172.335938 107.332031 Z M 168.148438 107.332031 "/>
<path style=" stroke:none;fill-rule:nonzero;fill:rgb(58.039216%,3.137255%,4.313725%);fill-opacity:1;" d="M 184.609375 107.332031 L 188.652344 90.746094 L 194.113281 90.746094 L 198.078125 107.332031 L 193.515625 107.332031 L 193.066406 104.40625 L 189.625 104.40625 L 189.175781 107.332031 Z M 192.617188 101.179688 L 191.417969 94.125 L 191.34375 94.125 L 190.148438 101.179688 Z M 192.617188 101.179688 "/>
<path style=" stroke:none;fill-rule:nonzero;fill:rgb(58.039216%,3.137255%,4.313725%);fill-opacity:1;" d="M 198.828125 107.332031 L 198.828125 90.746094 L 205.5625 90.746094 C 208.632812 90.746094 210.128906 92.246094 210.128906 95.175781 C 210.128906 97.5 209.15625 98.851562 207.285156 99.152344 L 207.285156 99.226562 C 208.105469 99.226562 208.855469 99.601562 209.378906 100.277344 C 209.828125 101.101562 210.054688 102.003906 209.976562 102.980469 L 209.976562 104.40625 C 209.902344 105.15625 209.976562 105.980469 210.203125 106.730469 C 210.351562 106.957031 210.503906 107.105469 210.652344 107.257812 L 210.652344 107.480469 L 206.085938 107.480469 C 205.710938 106.429688 205.636719 105.378906 205.710938 104.328125 L 205.710938 103.203125 C 205.789062 102.527344 205.636719 101.929688 205.414062 101.328125 C 205.1875 100.953125 204.738281 100.800781 204.289062 100.878906 L 203.167969 100.878906 L 203.167969 107.554688 L 198.828125 107.554688 Z M 203.167969 93.824219 L 203.167969 97.726562 L 203.992188 97.726562 C 205.1875 97.726562 205.789062 97.050781 205.789062 95.773438 C 205.789062 94.5 205.1875 93.824219 203.917969 93.824219 Z M 203.167969 93.824219 "/>
<path style=" stroke:none;fill-rule:nonzero;fill:rgb(58.039216%,3.137255%,4.313725%);fill-opacity:1;" d="M 212 107.332031 L 212 90.746094 L 216.339844 90.746094 L 216.339844 107.332031 Z M 212 107.332031 "/>
<path style=" stroke:none;fill-rule:nonzero;fill:rgb(58.039216%,3.137255%,4.313725%);fill-opacity:1;" d="M 216.863281 107.332031 L 220.902344 90.746094 L 226.367188 90.746094 L 230.40625 107.332031 L 225.84375 107.332031 L 225.394531 104.40625 L 221.953125 104.40625 L 221.503906 107.332031 Z M 224.871094 101.179688 L 223.671875 94.125 L 223.597656 94.125 L 222.398438 101.179688 Z M 224.871094 101.179688 "/>
<path style=" stroke:none;fill-rule:nonzero;fill:rgb(0%,0%,0%);fill-opacity:1;" d="M 168.371094 135.320312 L 168.371094 118.664062 L 174.65625 118.664062 C 176.902344 118.664062 178.398438 119.488281 179.148438 121.214844 C 179.671875 122.339844 179.894531 124.289062 179.894531 126.992188 C 179.894531 129.769531 179.671875 131.644531 179.148438 132.769531 C 178.398438 134.421875 176.902344 135.320312 174.65625 135.320312 Z M 172.636719 121.816406 L 172.636719 132.171875 L 173.460938 132.171875 C 174.132812 132.171875 174.730469 131.796875 174.957031 131.195312 C 175.257812 130.519531 175.332031 129.769531 175.332031 129.09375 L 175.332031 124.890625 C 175.332031 124.140625 175.257812 123.464844 174.957031 122.789062 C 174.730469 122.191406 174.058594 121.816406 173.460938 121.816406 Z M 172.636719 121.816406 "/>
<path style=" stroke:none;fill-rule:nonzero;fill:rgb(0%,0%,0%);fill-opacity:1;" d="M 181.617188 135.320312 L 181.617188 118.664062 L 191.417969 118.664062 L 191.417969 122.191406 L 185.882812 122.191406 L 185.882812 125.042969 L 191.046875 125.042969 L 191.046875 128.417969 L 185.882812 128.417969 L 185.882812 131.71875 L 191.570312 131.71875 L 191.570312 135.246094 L 181.617188 135.246094 Z M 181.617188 135.320312 "/>
<path style=" stroke:none;fill-rule:nonzero;fill:rgb(0%,0%,0%);fill-opacity:1;" d="M 193.289062 135.320312 L 193.289062 118.664062 L 197.632812 118.664062 L 197.632812 131.71875 L 202.945312 131.71875 L 202.945312 135.246094 L 193.289062 135.246094 Z M 193.289062 135.320312 "/>
<path style=" stroke:none;fill-rule:nonzero;fill:rgb(0%,0%,0%);fill-opacity:1;" d="M 174.957031 152.582031 L 174.957031 151.679688 C 175.03125 151.003906 174.882812 150.40625 174.65625 149.730469 C 174.507812 149.355469 174.132812 149.203125 173.757812 149.203125 C 173.160156 149.203125 172.710938 149.578125 172.5625 150.40625 C 172.335938 151.90625 172.261719 153.40625 172.335938 154.90625 C 172.261719 156.410156 172.335938 157.910156 172.5625 159.484375 C 172.785156 160.234375 173.160156 160.6875 173.757812 160.6875 C 174.359375 160.6875 174.808594 160.160156 174.957031 159.035156 C 175.03125 158.210938 175.03125 157.460938 175.03125 156.632812 L 179.222656 156.632812 L 179.222656 157.835938 C 179.222656 161.660156 177.425781 163.613281 173.757812 163.613281 C 171.441406 163.613281 169.792969 162.9375 168.96875 161.585938 C 168.222656 160.386719 167.847656 158.210938 167.847656 154.984375 C 167.847656 151.757812 168.296875 149.578125 169.121094 148.304688 C 169.941406 147.027344 171.515625 146.351562 173.757812 146.351562 C 177.351562 146.351562 179.148438 148.078125 179.148438 151.605469 L 179.148438 152.65625 Z M 174.957031 152.582031 "/>
<path style=" stroke:none;fill-rule:nonzero;fill:rgb(0%,0%,0%);fill-opacity:1;" d="M 180.792969 163.238281 L 180.792969 146.578125 L 190.597656 146.578125 L 190.597656 150.105469 L 185.058594 150.105469 L 185.058594 152.957031 L 190.222656 152.957031 L 190.222656 156.332031 L 185.058594 156.332031 L 185.058594 159.636719 L 190.746094 159.636719 L 190.746094 163.164062 Z M 180.792969 163.238281 "/>
<path style=" stroke:none;fill-rule:nonzero;fill:rgb(0%,0%,0%);fill-opacity:1;" d="M 192.394531 163.238281 L 192.394531 146.578125 L 197.257812 146.578125 L 200.101562 156.859375 L 200.101562 146.578125 L 204.140625 146.578125 L 204.140625 163.238281 L 199.351562 163.238281 L 196.433594 152.957031 L 196.433594 163.238281 Z M 192.394531 163.238281 "/>
<path style=" stroke:none;fill-rule:nonzero;fill:rgb(0%,0%,0%);fill-opacity:1;" d="M 211.699219 157.160156 L 211.699219 154.234375 L 217.3125 154.234375 L 217.3125 163.238281 L 214.394531 163.238281 L 214.320312 161.738281 L 214.242188 161.738281 C 213.71875 162.9375 212.523438 163.539062 210.652344 163.539062 C 208.632812 163.539062 207.285156 162.789062 206.609375 161.285156 C 206.085938 160.160156 205.863281 158.058594 205.863281 154.90625 C 205.863281 151.90625 206.238281 149.730469 207.058594 148.53125 C 207.957031 147.027344 209.605469 146.277344 212.074219 146.277344 C 215.589844 146.277344 217.3125 148.152344 217.3125 151.832031 L 213.121094 151.832031 C 213.121094 150.03125 212.746094 149.203125 211.921875 149.203125 C 211.25 149.203125 210.652344 149.730469 210.652344 150.40625 C 210.425781 151.90625 210.351562 153.40625 210.425781 154.90625 C 210.351562 156.410156 210.425781 157.910156 210.652344 159.484375 C 210.875 160.234375 211.25 160.6875 211.847656 160.6875 C 212.296875 160.6875 212.746094 160.460938 212.898438 160.011719 C 213.195312 159.109375 213.34375 158.136719 213.269531 157.160156 Z M 211.699219 157.160156 "/>
<path style=" stroke:none;fill-rule:nonzero;fill:rgb(0%,0%,0%);fill-opacity:1;" d="M 218.882812 163.238281 L 218.882812 146.578125 L 223.222656 146.578125 L 223.222656 163.238281 Z M 218.882812 163.238281 "/>
<path style=" stroke:none;fill-rule:nonzero;fill:rgb(0%,0%,0%);fill-opacity:1;" d="M 224.644531 154.90625 C 224.644531 151.757812 225.09375 149.578125 225.992188 148.230469 C 226.890625 146.878906 228.386719 146.277344 230.558594 146.277344 C 232.726562 146.277344 234.296875 146.953125 235.121094 148.230469 C 235.945312 149.503906 236.46875 151.757812 236.46875 154.90625 C 236.46875 158.058594 236.019531 160.234375 235.121094 161.585938 C 234.222656 162.863281 232.726562 163.539062 230.558594 163.539062 C 228.386719 163.539062 226.816406 162.863281 225.992188 161.585938 C 225.019531 160.3125 224.644531 158.058594 224.644531 154.90625 Z M 229.136719 154.90625 C 229.058594 156.410156 229.136719 157.910156 229.359375 159.484375 C 229.585938 160.234375 229.957031 160.6875 230.558594 160.6875 C 231.15625 160.6875 231.605469 160.3125 231.753906 159.484375 C 231.980469 157.984375 232.054688 156.484375 231.980469 154.90625 C 232.054688 153.40625 231.980469 151.90625 231.753906 150.40625 C 231.53125 149.65625 231.15625 149.203125 230.558594 149.203125 C 229.957031 149.203125 229.507812 149.578125 229.359375 150.40625 C 229.136719 151.90625 229.058594 153.40625 229.136719 154.90625 Z M 229.136719 154.90625 "/>
<path style="fill:none;stroke-width:3.11;stroke-linecap:butt;stroke-linejoin:miter;stroke:rgb(58.039216%,3.137255%,4.313725%);stroke-opacity:1;stroke-miterlimit:10;" d="M 218.301966 43.801307 L 218.301966 220.80105 " transform="matrix(0.748318,0,0,0.75042,0,0.0212304)"/>
</g>
</svg>
